<?xml version="1.0" encoding="UTF-8"?>
<svg xmlns="http://www.w3.org/2000/svg" width="832" height="408" viewBox="0 0 832 408" style="max-width: 832px; width: 100%; height: auto;" role="img">
  <rect width="100%" height="100%" rx="14" fill="#0a0810"/>
  <rect x="0.5" y="0.5" width="831" height="407" rx="14" fill="none" stroke="#2d2b31" stroke-width="1"/>
  <text x="416" y="23" text-anchor="middle" font-family='ui-monospace, "Cascadia Mono", "SF Mono", Menlo, Consolas, "DejaVu Sans Mono", monospace' font-size="13" fill="#8a8a8a">TorZlink</text>
  <g font-family='ui-monospace, "Cascadia Mono", "SF Mono", Menlo, Consolas, "DejaVu Sans Mono", monospace' font-size="16" fill="#ddd8ea">
    <text x="224" y="84" textLength="9.6" lengthAdjust="spacingAndGlyphs" xml:space="preserve" fill="#daf2fe" font-weight="600">𐓏</text>
    <text x="396.8" y="84" textLength="9.6" lengthAdjust="spacingAndGlyphs" xml:space="preserve" fill="#54c6fa" font-weight="600">𐓏</text>
    <rect x="195.2" y="90" width="9.6" height="22" fill="#ffffff"/>
    <rect x="204.8" y="90" width="9.6" height="22" fill="#f6fcff"/>
    <rect x="214.4" y="90" width="9.6" height="22" fill="#ecf9ff"/>
    <rect x="224" y="90" width="9.6" height="22" fill="#e3f5fe"/>
    <rect x="233.6" y="90" width="9.6" height="22" fill="#d9f2fe"/>
    <rect x="243.2" y="90" width="9.6" height="22" fill="#d0effe"/>
    <rect x="262.4" y="101" width="9.6" height="11" fill="#bde9fd"/>
    <rect x="272" y="101" width="9.6" height="11" fill="#b4e5fd"/>
    <rect x="281.6" y="101" width="9.6" height="11" fill="#aae2fd"/>
    <rect x="310.4" y="101" width="9.6" height="11" fill="#8ed9fc"/>
    <rect x="320" y="101" width="9.6" height="11" fill="#85d6fc"/>
    <rect x="329.6" y="101" width="9.6" height="11" fill="#7cd3fc"/>
    <rect x="339.2" y="101" width="9.6" height="11" fill="#79d2fc"/>
    <rect x="368" y="90" width="9.6" height="22" fill="#70cffb"/>
    <rect x="377.6" y="90" width="9.6" height="22" fill="#6dcefb"/>
    <rect x="387.2" y="90" width="9.6" height="22" fill="#6acdfb"/>
    <rect x="396.8" y="90" width="9.6" height="22" fill="#67ccfb"/>
    <rect x="406.4" y="90" width="9.6" height="22" fill="#64cbfb"/>
    <rect x="416" y="90" width="9.6" height="22" fill="#61cafa"/>
    <rect x="435.2" y="101" width="9.6" height="11" fill="#5bc8fa"/>
    <rect x="444.8" y="101" width="9.6" height="11" fill="#58c7fa"/>
    <rect x="492.8" y="101" width="9.6" height="11" fill="#49c3f9"/>
    <rect x="502.4" y="101" width="9.6" height="11" fill="#46c2f9"/>
    <rect x="521.6" y="101" width="9.6" height="11" fill="#40c0f8"/>
    <rect x="531.2" y="101" width="9.6" height="11" fill="#3dbff8"/>
    <rect x="560" y="101" width="9.6" height="11" fill="#37bbf7"/>
    <rect x="569.6" y="101" width="9.6" height="11" fill="#36b9f7"/>
    <rect x="588.8" y="101" width="9.6" height="11" fill="#34b6f6"/>
    <rect x="598.4" y="101" width="9.6" height="11" fill="#33b4f5"/>
    <rect x="617.6" y="101" width="9.6" height="11" fill="#31b1f4"/>
    <rect x="627.2" y="101" width="9.6" height="11" fill="#30aff3"/>
    <rect x="214.4" y="112" width="9.6" height="22" fill="#5bc8fa"/>
    <rect x="224" y="112" width="9.6" height="22" fill="#58c7fa"/>
    <rect x="252.8" y="112" width="9.6" height="22" fill="#4fc4f9"/>
    <rect x="262.4" y="112" width="9.6" height="22" fill="#4cc4f9"/>
    <rect x="272" y="112" width="9.6" height="11" fill="#49c3f9"/>
    <rect x="281.6" y="112" width="9.6" height="22" fill="#46c2f9"/>
    <rect x="291.2" y="112" width="9.6" height="22" fill="#43c1f9"/>
    <rect x="310.4" y="112" width="9.6" height="22" fill="#3dbff8"/>
    <rect x="320" y="112" width="9.6" height="22" fill="#3abef8"/>
    <rect x="329.6" y="123" width="9.6" height="11" fill="#38bdf8"/>
    <rect x="339.2" y="112" width="9.6" height="22" fill="#37bbf7"/>
    <rect x="348.8" y="123" width="9.6" height="11" fill="#36b9f7"/>
    <rect x="377.6" y="123" width="9.6" height="11" fill="#33b4f5"/>
    <rect x="387.2" y="123" width="9.6" height="11" fill="#32b3f4"/>
    <rect x="396.8" y="112" width="9.6" height="11" fill="#31b1f4"/>
    <rect x="406.4" y="112" width="9.6" height="11" fill="#30aff3"/>
    <rect x="435.2" y="112" width="9.6" height="22" fill="#2daaf2"/>
    <rect x="444.8" y="112" width="9.6" height="22" fill="#2ca9f1"/>
    <rect x="492.8" y="112" width="9.6" height="22" fill="#27a0ee"/>
    <rect x="502.4" y="112" width="9.6" height="22" fill="#269fed"/>
    <rect x="521.6" y="112" width="9.6" height="22" fill="#249bec"/>
    <rect x="531.2" y="112" width="9.6" height="22" fill="#239aec"/>
    <rect x="540.8" y="112" width="9.6" height="22" fill="#2298eb"/>
    <rect x="550.4" y="123" width="9.6" height="11" fill="#2196eb"/>
    <rect x="560" y="112" width="9.6" height="22" fill="#2095ea"/>
    <rect x="569.6" y="112" width="9.6" height="22" fill="#1f93e9"/>
    <rect x="588.8" y="112" width="9.6" height="22" fill="#1d90e8"/>
    <rect x="598.4" y="112" width="9.6" height="22" fill="#1d8ee6"/>
    <rect x="608" y="123" width="9.6" height="11" fill="#1c8be2"/>
    <rect x="617.6" y="112" width="9.6" height="22" fill="#1c89de"/>
    <rect x="627.2" y="112" width="9.6" height="11" fill="#1b86da"/>
    <rect x="214.4" y="134" width="9.6" height="22" fill="#2daaf2"/>
    <rect x="224" y="134" width="9.6" height="22" fill="#2ca9f1"/>
    <rect x="252.8" y="134" width="9.6" height="11" fill="#29a4ef"/>
    <rect x="262.4" y="134" width="9.6" height="22" fill="#28a2ef"/>
    <rect x="272" y="134" width="9.6" height="22" fill="#27a0ee"/>
    <rect x="281.6" y="134" width="9.6" height="22" fill="#269fed"/>
    <rect x="291.2" y="134" width="9.6" height="11" fill="#259ded"/>
    <rect x="310.4" y="134" width="9.6" height="22" fill="#239aec"/>
    <rect x="320" y="134" width="9.6" height="22" fill="#2298eb"/>
    <rect x="339.2" y="134" width="9.6" height="22" fill="#2095ea"/>
    <rect x="348.8" y="134" width="9.6" height="22" fill="#1f93e9"/>
    <rect x="368" y="134" width="9.6" height="22" fill="#1d90e8"/>
    <rect x="377.6" y="134" width="9.6" height="22" fill="#1d8ee6"/>
    <rect x="387.2" y="134" width="9.6" height="22" fill="#1c8be2"/>
    <rect x="396.8" y="134" width="9.6" height="22" fill="#1c89de"/>
    <rect x="406.4" y="134" width="9.6" height="22" fill="#1b86da"/>
    <rect x="416" y="134" width="9.6" height="22" fill="#1b84d6"/>
    <rect x="435.2" y="134" width="9.6" height="22" fill="#1a7fce"/>
    <rect x="444.8" y="134" width="9.6" height="22" fill="#197dca"/>
    <rect x="454.4" y="145" width="9.6" height="11" fill="#197ac6"/>
    <rect x="464" y="145" width="9.6" height="11" fill="#1878c2"/>
    <rect x="473.6" y="145" width="9.6" height="11" fill="#1876be"/>
    <rect x="492.8" y="134" width="9.6" height="22" fill="#1771b6"/>
    <rect x="502.4" y="134" width="9.6" height="22" fill="#166eb2"/>
    <rect x="521.6" y="134" width="9.6" height="22" fill="#156aaa"/>
    <rect x="531.2" y="134" width="9.6" height="22" fill="#1567a6"/>
    <rect x="550.4" y="134" width="9.6" height="11" fill="#14639e"/>
    <rect x="560" y="134" width="9.6" height="22" fill="#13609a"/>
    <rect x="569.6" y="134" width="9.6" height="22" fill="#135e96"/>
    <rect x="588.8" y="134" width="9.6" height="22" fill="#12598e"/>
    <rect x="598.4" y="134" width="9.6" height="22" fill="#11578a"/>
    <rect x="617.6" y="134" width="9.6" height="22" fill="#105282"/>
    <rect x="627.2" y="134" width="9.6" height="22" fill="#104f7e"/>
    <text x="195.2" y="216" textLength="441.6" lengthAdjust="spacingAndGlyphs" xml:space="preserve" fill="#e8f2fa">A torrent downloader forked from TorLink and designed for the terminal.</text>
    <text x="262.4" y="238" textLength="316.8" lengthAdjust="spacingAndGlyphs" xml:space="preserve" fill-opacity="0.55">games  ·  movies  ·  tv  ·  anime</text>
    <text x="118.4" y="282" textLength="19.2" lengthAdjust="spacingAndGlyphs" xml:space="preserve" fill="#38bdf8">╭─</text>
    <text x="147.2" y="282" textLength="57.6" lengthAdjust="spacingAndGlyphs" xml:space="preserve" fill="#38bdf8" font-weight="600">Search</text>
    <text x="214.4" y="282" textLength="499.2" lengthAdjust="spacingAndGlyphs" xml:space="preserve" fill="#38bdf8">───────────────────────────────────────────────────╮</text>
    <rect x="122.5" y="288" width="1.4" height="22" fill="#38bdf8"/>
    <text x="137.6" y="304" textLength="9.6" lengthAdjust="spacingAndGlyphs" xml:space="preserve" fill="#38bdf8">❯</text>
    <rect x="156.8" y="288" width="9.6" height="22" fill="#ddd8ea"/>
    <text x="156.8" y="304" textLength="9.6" lengthAdjust="spacingAndGlyphs" xml:space="preserve" fill="#0a0810">S</text>
    <text x="166.4" y="304" textLength="278.4" lengthAdjust="spacingAndGlyphs" xml:space="preserve" fill-opacity="0.55">earch or paste a magnet link…</text>
    <rect x="708.1" y="288" width="1.4" height="22" fill="#38bdf8"/>
    <text x="118.4" y="326" textLength="595.2" lengthAdjust="spacingAndGlyphs" xml:space="preserve" fill="#38bdf8">╰────────────────────────────────────────────────────────────╯</text>
    <text x="233.6" y="370" textLength="9.6" lengthAdjust="spacingAndGlyphs" xml:space="preserve" fill="#6eb5e8">↵</text>
    <text x="252.8" y="370" textLength="153.6" lengthAdjust="spacingAndGlyphs" xml:space="preserve" fill-opacity="0.55">search  ·  empty</text>
    <text x="416" y="370" textLength="9.6" lengthAdjust="spacingAndGlyphs" xml:space="preserve" fill="#6eb5e8">↵</text>
    <text x="435.2" y="370" textLength="86.4" lengthAdjust="spacingAndGlyphs" xml:space="preserve" fill-opacity="0.55">browse  ·</text>
    <text x="540.8" y="370" textLength="19.2" lengthAdjust="spacingAndGlyphs" xml:space="preserve" fill="#6eb5e8">^c</text>
    <text x="569.6" y="370" textLength="38.4" lengthAdjust="spacingAndGlyphs" xml:space="preserve" fill-opacity="0.55">quit</text>
  </g>
</svg>